<?xml version="1.0" encoding="UTF-8" standalone="no" ?>
<!DOCTYPE svg PUBLIC "-//W3C//DTD SVG 1.1//EN" "http://www.w3.org/Graphics/SVG/1.1/DTD/svg11.dtd">
<svg xmlns="http://www.w3.org/2000/svg" xmlns:xlink="http://www.w3.org/1999/xlink" version="1.1" width="1080" height="1080" viewBox="0 0 1080 1080" xml:space="preserve">
<desc>Created with Fabric.js 5.2.4</desc>
<defs>
</defs>
<g transform="matrix(1 0 0 1 540 540)" id="42bcac0f-44e0-4d85-b727-7e655ec81016"  >
<rect style="stroke: none; stroke-width: 1; stroke-dasharray: none; stroke-linecap: butt; stroke-dashoffset: 0; stroke-linejoin: miter; stroke-miterlimit: 4; fill: rgb(255,255,255); fill-rule: nonzero; opacity: 1; visibility: hidden;" vector-effect="non-scaling-stroke"  x="-540" y="-540" rx="0" ry="0" width="1080" height="1080" />
</g>
<g transform="matrix(1 0 0 1 540 540)" id="357feec9-3a5c-4e14-a5f9-850c427e1a4f"  >
</g>
<g transform="matrix(1.33 0 0 1.33 540 540)"  >
<path style="stroke: none; stroke-width: 1; stroke-dasharray: none; stroke-linecap: butt; stroke-dashoffset: 0; stroke-linejoin: miter; stroke-miterlimit: 4; fill: rgb(0,0,0); fill-rule: evenodd; opacity: 1;" vector-effect="non-scaling-stroke"  transform=" translate(-172.79, -200.08)" d="M 131.476562 93.210938 C 130.191406 93.769531 125.199219 98.054688 120.382812 102.730469 C 113.671875 109.25 111.714844 111.570312 112 112.675781 C 112.207031 113.464844 112.65625 114.109375 112.992188 114.109375 C 114.015625 114.109375 121.417969 123.730469 123.527344 127.804688 C 125.9375 132.449219 127.101562 136.601562 129.394531 148.746094 C 130.46875 154.441406 131.785156 159.113281 132.746094 160.667969 C 135.214844 164.664062 140.09375 167.972656 144.945312 168.945312 C 147.285156 169.410156 151.773438 170.300781 154.925781 170.921875 C 163.539062 172.625 169.179688 174.5625 174.460938 177.628906 C 180.570312 181.183594 191.648438 192.214844 195.066406 198.152344 C 197.984375 203.226562 200.804688 212.574219 202.691406 223.433594 C 204.867188 235.953125 209.394531 240.480469 221.9375 242.679688 C 229.953125 244.085938 238.460938 246.257812 242.40625 247.90625 C 248.410156 250.414062 259.136719 258.546875 258.277344 259.9375 C 258.058594 260.292969 258.738281 260.515625 259.789062 260.429688 C 262.1875 260.230469 277.988281 244.339844 279.585938 240.519531 C 280.960938 237.222656 280.964844 232.199219 279.59375 228.914062 C 277.023438 222.769531 267.179688 217.921875 253.199219 215.917969 C 244.285156 214.640625 240.238281 213.265625 236.839844 210.359375 C 233.015625 207.085938 231.949219 205.0625 230.851562 199.042969 C 228.835938 187.96875 226.195312 177.902344 224.230469 173.804688 C 221.585938 168.289062 214.34375 159.652344 208.140625 154.617188 C 199.734375 147.789062 194.21875 145.617188 175.925781 141.914062 C 162.207031 139.136719 159.664062 136.308594 156.914062 120.738281 C 154.632812 107.824219 151.289062 99.054688 147.1875 95.234375 C 143.890625 92.164062 136.171875 91.167969 131.476562 93.210938 M 77.097656 146.082031 C 72.179688 151.277344 69.6875 154.621094 67.6875 158.714844 L 64.964844 164.28125 L 65.007812 175.269531 C 65.039062 183.214844 65.382812 187.371094 66.25 190.28125 C 66.910156 192.5 67.835938 195.628906 68.304688 197.242188 C 71.414062 207.894531 83.785156 222.15625 95.152344 228.1875 C 99.605469 230.550781 110.222656 233.6875 117.769531 234.875 C 125.949219 236.160156 128.109375 237.050781 131.8125 240.65625 C 135.570312 244.324219 136.21875 245.933594 137.910156 255.835938 C 139.246094 263.648438 142.09375 273.53125 144.125 277.417969 C 148.421875 285.640625 161.523438 298.339844 169.402344 301.921875 C 177.941406 305.804688 192.511719 308.628906 200.359375 307.917969 C 211.019531 306.949219 216.839844 304.011719 227.378906 294.28125 C 231.519531 290.457031 233.054688 288.546875 233.054688 287.222656 C 233.054688 286.226562 232.769531 285.589844 232.421875 285.804688 C 232.074219 286.019531 231.238281 285.589844 230.570312 284.851562 C 228.722656 282.8125 224.609375 281.335938 217.214844 280.0625 C 199.359375 276.988281 191.152344 272.902344 180.566406 261.832031 C 171.148438 251.980469 168.835938 246.808594 165 227.023438 C 163.332031 218.429688 162.375 216.34375 158.460938 212.808594 C 154.394531 209.136719 153.925781 208.949219 144.066406 207.109375 C 124.289062 203.414062 116.15625 199.089844 104.996094 186.332031 C 98.15625 178.511719 94.683594 169.75 92.050781 153.660156 C 91.175781 148.316406 90.40625 145.972656 88.726562 143.546875 C 87.523438 141.8125 86.730469 140.082031 86.964844 139.703125 C 87.199219 139.324219 86.582031 139.011719 85.589844 139.011719 C 84.261719 139.011719 82.027344 140.871094 77.097656 146.082031" stroke-linecap="round" />
</g>
</svg>